/* XPM */
static char * Gem__xpm[] = {
"50 50 145 2",
"  	c #63AB3F",
". 	c #C8D45D",
"+ 	c #3B7D4F",
"@ 	c #000000",
"# 	c #672E2E",
"$ 	c #743231",
"% 	c #732B2A",
"& 	c #751B1B",
"* 	c #741313",
"= 	c #740D0C",
"- 	c #752423",
"; 	c #220909",
"> 	c #A44D4C",
", 	c #DD6867",
"' 	c #E56463",
") 	c #E2605F",
"! 	c #E35453",
"~ 	c #E43D3D",
"{ 	c #E22B2A",
"] 	c #E22423",
"^ 	c #E23736",
"/ 	c #E34B4A",
"( 	c #CD5554",
"_ 	c #5C1D1D",
": 	c #A53E3E",
"< 	c #D56564",
"[ 	c #FD8584",
"} 	c #FF9190",
"| 	c #FF8C8B",
"1 	c #FE7574",
"2 	c #FE5453",
"3 	c #FF3C3C",
"4 	c #FF302F",
"5 	c #FF413F",
"6 	c #FF4C4B",
"7 	c #FF3534",
"8 	c #FF2B2A",
"9 	c #FF4443",
"0 	c #DD4D4C",
"a 	c #9A2B2B",
"b 	c #5D0505",
"c 	c #4E1818",
"d 	c #8F3838",
"e 	c #FE807F",
"f 	c #FF9998",
"g 	c #FFA9A8",
"h 	c #FF9C9B",
"i 	c #FF6B6B",
"j 	c #FE5C5B",
"k 	c #F55857",
"l 	c #EB4444",
"m 	c #D52B2A",
"n 	c #BD2020",
"o 	c #8C1615",
"p 	c #4C0606",
"q 	c #280B0B",
"r 	c #DE5F5F",
"s 	c #FD7D7C",
"t 	c #FFA5A5",
"u 	c #FF9595",
"v 	c #FF6363",
"w 	c #E74242",
"x 	c #DE3332",
"y 	c #D92323",
"z 	c #D32222",
"A 	c #BD1D1D",
"B 	c #951515",
"C 	c #570808",
"D 	c #D65A59",
"E 	c #FFA1A0",
"F 	c #FF2726",
"G 	c #FF504F",
"H 	c #F7504F",
"I 	c #EA4847",
"J 	c #DC2C2C",
"K 	c #D81F20",
"L 	c #880F0F",
"M 	c #451B1B",
"N 	c #933030",
"O 	c #FE605F",
"P 	c #ED4E4D",
"Q 	c #BF2A29",
"R 	c #97201F",
"S 	c #5C0B0B",
"T 	c #AD4646",
"U 	c #FF7877",
"V 	c #FF9C9C",
"W 	c #FFB2B2",
"X 	c #FFACAC",
"Y 	c #FF5857",
"Z 	c #F55C5B",
"` 	c #F35453",
" .	c #EB5656",
"..	c #CA2E2C",
"+.	c #B54A49",
"@.	c #EB6666",
"#.	c #FFB5B5",
"$.	c #D6312F",
"%.	c #8E1817",
"&.	c #5E2726",
"*.	c #9F3C3C",
"=.	c #EA5858",
"-.	c #C93232",
";.	c #A52828",
">.	c #6C1515",
",.	c #AE3535",
"'.	c #FF2827",
").	c #D71E1E",
"!.	c #670506",
"~.	c #421313",
"{.	c #B24444",
"].	c #C11F1F",
"^.	c #9E1919",
"/.	c #662122",
"(.	c #C22222",
"_.	c #DF6262",
":.	c #6B0C0C",
"<.	c #AB3A3A",
"[.	c #6F1D1D",
"}.	c #A03131",
"|.	c #FF9898",
"1.	c #F54F4E",
"2.	c #630C0C",
"3.	c #561616",
"4.	c #B63838",
"5.	c #E15B5B",
"6.	c #FFA7A7",
"7.	c #9A1616",
"8.	c #4A1111",
"9.	c #4A0F0F",
"0.	c #B63535",
"a.	c #DF3E3D",
"b.	c #A02626",
"c.	c #F4605E",
"d.	c #CE3E3D",
"e.	c #AB2524",
"f.	c #DF4847",
"g.	c #D24746",
"h.	c #420707",
"i.	c #B32322",
"j.	c #E83F3E",
"k.	c #A1201F",
"l.	c #9F2322",
"m.	c #AE201E",
"n.	c #330404",
"    . . . . . . . . . . . . . . . . . . . . . . . . . . . . . . . . . . . . . . . . . . . . . . . . ",
"          . . . . . . . . . . .                               . . . . . . . . . . . . . . . . . . . ",
"          . . . . . . . . . . . .                               . . . . . . . . . . . . . . . . . . ",
"  . . . . . . . . . . . . . . . . . . . .                                                           ",
". . . . . . . . . . . . . . . . . . . . . .                                                         ",
". . . . . . . . . . . . . . . . . . . . . . .                                                       ",
". . . . . . . . . . . . . . . . . . . . . . . . . . . . . . .                                   . . ",
". . . . . . . . . . . . . . . . . . . . . . . . . . . . . . .                                 . . . ",
"  . . . . . . . . . . . . . . . . . . . . . . . . . . . . . . .                               . . . ",
"    . . . . . . . . . . . . . . . . . . . . . . . . . . . . . . . . . . .                       .   ",
"                              . . . . . . . . . . . . . . . . . . . . . . .                         ",
"                              . . . . . . . . . . . . . . . . . . . . . . .                         ",
"+                         . . . . @ . . . . . . . . . . . . . . @ . @ . . . . .                     ",
"                          . . # $ % % $ % & * = * % - = = = = = = * - % . . . . .                   ",
"                          . ; > , ' ) ' ! ~ { ] ^ ! / { ] ] ] ] ] { / ( % . . . .                   ",
"    . . .                 _ : < [ } | 1 2 3 4 5 2 2 2 6 7 8 8 8 7 9 2 0 a b . .                 . . ",
"  . . . . .             c d ) e f g h i 9 8 7 2 j 9 6 j 9 8 8 4 9 k l m n o p                 . . . ",
". . . . . . .         q : r s f t u s v 9 3 2 6 9 7 7 6 2 9 7 6 2 w x y z A B C             . . . . ",
". . . . . . . . . . . a D s f E f 1 2 2 6 6 2 9 8 8 F 7 6 G 6 H I J K y y K A L b . . . . . . . . . ",
". . . . . . . . . M N ! s f g f 1 2 9 9 j j 9 7 7 7 7 7 7 6 O P x J J J J J m Q R S . . . . . . . . ",
". . . . . . . . M T r U V W X } i Y 2 j v v 2 2 2 2 2 2 2 Y v Z ` ` ` ` ` ` `  ./ ..o . . . . . . . ",
". . . . . . . . M +.@.s E #.X } i Y O i O 2 2 2 2 2 2 2 2 2 Y v v k k k k k k Z P $.%.. . . . . . . ",
". . . . . . . . . &.*.=.e V g f i 2 2 v 2 7 7 7 7 7 7 7 7 7 3 j Z ~ x x x x x -.;.* . . . . . . . . ",
". . . . . . . . . . >.,.r [ V E } i Y v 6 F '.8 8 8 8 8 8 F 7 Y k x ).y y z A B !.. . . . . . . . . ",
"  . . . . . . . . . . ~.{.@.[ V t | 1 v 6 7 8 8 8 8 8 8 8 7 3 2 P J y y z ].^.S . . . . . . . . . . ",
"                      . /.*.@.[ f V | j Y 2 7 8 8 8 8 8 8 9 2 I x y y z (.B S . . . . . .           ",
"                        . /.{._.s | s j v j 7 F 8 8 8 8 8 9 j w y y z A B :.. . . . . .             ",
"                      . . . ~.<. .O v v U U 6 7 8 8 8 8 7 6 k ~ y z ].^.S . . . . . .               ",
"              . . . . . . . . [.}./ v U |.f s 2 8 8 8 7 6 1.~ J z ].B 2.                            ",
"            . . . . . . . . . . 3.4.5.U f 6.V U 5 8 '.7 Y ` J z A 7.:.                              ",
"          . . . . . . . . . . . . 8.: @.[ V g | v 3 8 3 2 P m ].^.C                                 ",
"        . . . . . . . . . . . . . . % : 5.U | u | Y 9 2 I x (.B 2.                                  ",
"      . . . . . . . . . . . . . . . . 9.0./ j | u O 2 j a.A 7.2.                                    ",
"      . . . . . . . . . . . . . . . . . 3.b.w i U 6 2 c.d.7.C                                       ",
"        . . . . . . . . . . . . . . . . . :.e.f.Y Y ` g.a :.          . . . . .                     ",
"                                            h.i.j.k 0 k.b           . . . . . . .                   ",
"                                              2.l.~ -.2.            . . . . . . .                   ",
"                            . . . . . . .       :.m.^.    . . . . . . . . . . . . . . . . .         ",
"                          . . . . . . . . .       n.    . . . . . . . . . . . . . . . . . . .       ",
"                        . . . . . . . . . . .         . . . . . . . . . . . . . . . . . . . . .     ",
"                . . . . . . . . . . . . . . . . . . . . . . . . . . . . . . . . . . . . . . . . . . ",
"            . . . . . . . . . . . . . . . . . . . . . . . . . . . . . . . . . . . . . . . . . . . . ",
"            . . . . . . . . . . . . . . . . . . . . . . . . . . . . . . . . . . . . . . . . . . . . ",
"        . . . . . . . . . . . . . . . . . . . . . . . . . . . . . . . . . . . . . . . . . . . . . . ",
"      . . . . . . . . . . . . . . . . . . . . . . . . . . . . .                                     ",
"      . . . . . . . . . . . . . . . . . . . . . . . . . . . .                                       ",
"+       . . . . . . . . . . . . . . . . . . . . . . . . . . .                                       ",
"+                                                                     . . . . . . . . . . .         ",
"                                                                    . . . . . . . . . . . . .       ",
"    . . . . . . . . . . . . . . . . . . . . . . . . . . . . . . . . . . . . . . . . . . . . . . . . "};
