/* XPM */
static char * Player__xpm[] = {
"50 50 220 2",
"  	c #63AB3F",
". 	c #C8D45D",
"+ 	c #1E1822",
"@ 	c #322E3A",
"# 	c #545163",
"$ 	c #524F61",
"% 	c #2D2B3B",
"& 	c #16111B",
"* 	c #5D5B6E",
"= 	c #34313E",
"- 	c #4D4B5D",
"; 	c #615E71",
"> 	c #7E7684",
", 	c #353443",
"' 	c #585769",
") 	c #746C7A",
"! 	c #393847",
"~ 	c #575669",
"{ 	c #363649",
"] 	c #474757",
"^ 	c #6A515B",
"/ 	c #AD6553",
"( 	c #453949",
"_ 	c #31334C",
": 	c #24202E",
"< 	c #444253",
"[ 	c #3C4357",
"} 	c #533034",
"| 	c #954B31",
"1 	c #1F2133",
"2 	c #4D5064",
"3 	c #6B5B69",
"4 	c #AD6147",
"5 	c #B76747",
"6 	c #E57F58",
"7 	c #E78159",
"8 	c #6E544B",
"9 	c #B68868",
"0 	c #966952",
"a 	c #8B6668",
"b 	c #EC966A",
"c 	c #F4A373",
"d 	c #B87754",
"e 	c #634845",
"f 	c #3B7D4F",
"g 	c #CF986D",
"h 	c #B86858",
"i 	c #BD7A63",
"j 	c #F2B58C",
"k 	c #8C8386",
"l 	c #7C757A",
"m 	c #784839",
"n 	c #FCB682",
"o 	c #F4AD7C",
"p 	c #F9B985",
"q 	c #514A4E",
"r 	c #AE825F",
"s 	c #9D4642",
"t 	c #875752",
"u 	c #FAC59D",
"v 	c #E4DBD7",
"w 	c #D3C9C7",
"x 	c #CDC6C3",
"y 	c #6C6871",
"z 	c #030109",
"A 	c #FFC28B",
"B 	c #EBA578",
"C 	c #AD4C44",
"D 	c #FCBB85",
"E 	c #F3D7C9",
"F 	c #AF8273",
"G 	c #D78E6B",
"H 	c #F7B07E",
"I 	c #C87152",
"J 	c #E2AC82",
"K 	c #D6A38A",
"L 	c #CC7961",
"M 	c #B05B51",
"N 	c #DDA47E",
"O 	c #87534E",
"P 	c #1A131D",
"Q 	c #562826",
"R 	c #7A4122",
"S 	c #793726",
"T 	c #864E15",
"U 	c #794618",
"V 	c #21171E",
"W 	c #231D28",
"X 	c #292735",
"Y 	c #EFA877",
"Z 	c #635C6D",
"` 	c #000E1D",
" .	c #933F35",
"..	c #DA762A",
"+.	c #CE7336",
"@.	c #D17B43",
"#.	c #DA8035",
"$.	c #D07A12",
"%.	c #2E1C1E",
"&.	c #3A394C",
"*.	c #D17B5E",
"=.	c #AE6A74",
"-.	c #2D3487",
";.	c #37378A",
">.	c #423F94",
",.	c #8A5774",
"'.	c #453E51",
").	c #DB7621",
"!.	c #B6758C",
"~.	c #3C47A9",
"{.	c #454AAA",
"].	c #5559BF",
"^.	c #454DB1",
"/.	c #262456",
"(.	c #533753",
"_.	c #66274B",
":.	c #671C26",
"<.	c #8A2F2F",
"[.	c #B4533A",
"}.	c #54394B",
"|.	c #702B29",
"1.	c #44192D",
"2.	c #181839",
"3.	c #4D57C2",
"4.	c #5256BD",
"5.	c #5458C1",
"6.	c #231F42",
"7.	c #454498",
"8.	c #6E56A9",
"9.	c #801E28",
"0.	c #A42425",
"a.	c #992429",
"b.	c #A2252A",
"c.	c #673175",
"d.	c #221E3D",
"e.	c #6473CE",
"f.	c #A56B97",
"g.	c #C9740E",
"h.	c #791D27",
"i.	c #9D242B",
"j.	c #0B1426",
"k.	c #180905",
"l.	c #5957BC",
"m.	c #C17101",
"n.	c #A8292A",
"o.	c #A22535",
"p.	c #723E76",
"q.	c #473885",
"r.	c #53327A",
"s.	c #4B4FB1",
"t.	c #514F91",
"u.	c #635ABA",
"v.	c #B46835",
"w.	c #502F1B",
"x.	c #B04E4C",
"y.	c #371A21",
"z.	c #462023",
"A.	c #75313A",
"B.	c #CD7716",
"C.	c #060517",
"D.	c #DA824E",
"E.	c #834A18",
"F.	c #503381",
"G.	c #73516B",
"H.	c #161320",
"I.	c #6F4019",
"J.	c #6B3D19",
"K.	c #874E0F",
"L.	c #4D52B6",
"M.	c #55327F",
"N.	c #04111D",
"O.	c #5457C0",
"P.	c #875573",
"Q.	c #0A111D",
"R.	c #DC761D",
"S.	c #C25E3E",
"T.	c #A4566E",
"U.	c #3E419C",
"V.	c #CA6735",
"W.	c #3A3D97",
"X.	c #964134",
"Y.	c #4C53BC",
"Z.	c #000101",
"`.	c #2D0F1B",
" +	c #A69CA7",
".+	c #877D8A",
"++	c #140C18",
"@+	c #272B69",
"#+	c #C5815B",
"$+	c #5165B9",
"%+	c #ADAED5",
"&+	c #CFC8C3",
"*+	c #D5CCCA",
"=+	c #EDE4E0",
"-+	c #EBE3DF",
";+	c #1D1621",
">+	c #282B79",
",+	c #3A52AF",
"'+	c #E5DCD8",
")+	c #8C5DA1",
"!+	c #6D5FA3",
"~+	c #938996",
"{+	c #9993BE",
"]+	c #A48FB3",
"^+	c #90868A",
"/+	c #918692",
"(+	c #030037",
"_+	c #9C588F",
":+	c #673505",
"<+	c #1A1109",
"[+	c #8F526F",
"}+	c #AD7297",
"|+	c #B16714",
"1+	c #BC6B07",
"2+	c #596FD0",
"3+	c #5F70CE",
"4+	c #D18D87",
"5+	c #AE8EBA",
"6+	c #534C57",
"7+	c #C87501",
"    . . . . . . . . . . . . . . . . . . . . . . . . . . . . . . . . . . . . . . . . . . . . . . . . ",
"          . . . . . . . . . . .                               . . . . . . . . . . . . . . . . . . . ",
"          . . . . . . . . . . . .         + + + + + + +         . . . . . . . . . . . . . . . . . . ",
"  . . . . . . . . . . . . . . . . . . . @ # # # # # # $ %                                           ",
". . . . . . . . . . . . . . . . . . & @ # * * * * * * * # @                                         ",
". . . . . . . . . . . . . . . . . = - # * * * * * * ; > ; $ @                                       ",
". . . . . . . . . . . . . . . . , # * * * ' - * * * * ) ; * =                                   . . ",
". . . . . . . . . . . . . . . . ! * * * * ~ { ] - * * * * * $ @                               . . . ",
"  . . . . . . . . . . . . . . . ! * * * ' ^ / ( _ ] ] - * * * =                               . . . ",
"    . . . . . . . . . . . . . : < * * * [ } | } / / / } { ' * - = . . . .                       .   ",
"                              1 _ 2 * 3 / 4 4 5 6 7 7 5 4 ^ ' * ! . . . . .                         ",
"                              8 9 0 ~ a b 4 4 5 c c c d 4 e - * ! . . . . .                         ",
"f                         . 0 g b h ^ i j k l m n o p 8 l q % < = . . . . . . .                     ",
"                          . r n 7 s t c u v w 8 n b n 8 x y z & . . . . . . . . .                   ",
"                          . r A B C 9 D j E E 9 p c B 9 E F . . . . . . . . . . .                   ",
"    . . .                 . 0 o o G c n b c D D H B I n D c m . . . . . . . . .                 . . ",
"  . . . . .                   0 o n D H J J J K L M M N J o O       P Q R R S T T T T T U V   . . . ",
". . . . . . .               W X O G Y i Z * Z a a a a Z Z i m       `  ...+.5 @.@.@.@.#.$.%.. . . . ",
". . . . . . . . . . .       X &.{ O L a ' * 3 M *.*.M 3 * ' @       `  ...=.-.;.>.>.;.,.$.%.. . . . ",
". . . . . . . . . . . .   & X ! ( ( O I e ~ ' Z Z Z Z * ' '.: . . . `  .).!.~.{.].].^.,.$.%.. . . . ",
". . . . . . . . . . . . /././.(._.:.<.[.C }.'.~ ' ' ' ' }.|.1.2.. . `  .).!.3.4.5.5.^.,.$.%.. . . . ",
". . . . . . . . . . . 6.7.].4.4.8.S :.9.0.a.( }.}.}.}.}.a.b.c.-./.. `  .).!.3.5.5.5.^.,.$.%.. . . . ",
". . . . . . . . . . d.7.e.e.4.3.f.g.h.0.0.h.h.b.b.i.i.i.9.a.c.;.-./.j. .).!.3.5.4.4.^.,.$.%.. . . . ",
". . . . . . . . . k.7.4.5.5.5.l.f.m.:.n.o.0.0.0.0.h.h.h.a.:.s p.q.r./. .).!.3.5.s.{.^.,.$.%.. . . . ",
"  . . . . . . . . k.t.u.u.u.u.f.v.w.|.x.c.o.b.0.9.i.i.b.h.y.z.s x.x.A. .).!.3.5.4.s.-.,.B.%.. . . . ",
"                  C.v.D.D.D.D.5 w.` E.@.q.F.c.o.i.o.c.x.Q P P z.Q Q y. .).!.3.].5.4.{.G.[.%.        ",
"                  H.w.I.J.J.I.J.. ` K.*.L.s.;.M.M.M.q.+.J.& P P P P N. .).!.3.5.O.5.^.P.B.%.        ",
"                P % , : & Q.. . . ` T @.7.4.L.L.L.L.u.D.I.. P P P P Q. .R.!.3.5.s.{.^.,.$.%.        ",
"              . P % &.% & . . . . Q.S S.T.l.5.5.5.4.t.+.I.    P P P Q. .R.!.3.5.s.U.^.,.$.%.        ",
"            . P % { &.% . . . . . P y.| L l.5.5.5.l.T.V.Q         P Q. .).!.^.W.{.4.^.,.$.%.        ",
"          . . P , &.% W & & . . . P N.J.h 7.W.W.W.t.@.X.y.          N. .).!.Y.7.7.5.^.,.$.%.        ",
"        . . . C.j.2.j.Z.t.t.Z.Z.`.1.1.Q A.Z  + +.+ +0 Q 1.k.Z.++    `  .).!.3.4.L.5.^.,.$.%.        ",
"      . . . @+F g g #+O $+%+&+x &+w w w w *+=+=+v -+w w w &+x y     `  .).!.3.5.L.{.^.,.$.%.        ",
"      . . ;+>+K A A c T.,+%+'+'+'+'+'+'+'+'+v '+'+'+'+'+'+'+x l     `  .R.!.3.5.L.L.^.,.$.%.        ",
"        . . /.G n A n G )+!+k k ~+{+{+{+{+]+K ^+K {+{+{+{+/+q       `  .).!.3.5.5.5.^.,.$.%.        ",
"              | d 9 9 d P.@+Z.(+>+{.3.3.u._+V.:+..8.Y.3.Y.>+2.      `  .).=.~.s.5.5.^.,.$.%.        ",
"                C.z z C.Z.<+<+@+~.~.3.3.8.V. .Q V.[+l.3.3.~./.      ` X.V.=.~.s.L.s.^.,.$.%.        ",
"                            . G.}+}+}+f._+V.%.z.X.x._+f.}+}+(.. . . ` X.V.f.3.O.s.{.^.,.$.%.        ",
"                          . . U m.m.m.|+X. .y.  y.X.X.1+m.1+J.. . . `  .R.!.2+3+3+e.$+P.$.%..       ",
"                        . . C.++` ` ` ` ` N..     N.Q.` ` ` P P . . `  .).4+5+5+5+5+]+h $.%.. .     ",
"                . . . . . q 6+( ++& & P . . . . . . P P P P & & . . N.S v.7+7+7+7+7+7+g.|+%.. . . . ",
"            . . . . . . . 3 ~+l 6+6+q . . . . . . . P P P @ , , . . . P P P P P P P P P P P . . . . ",
"            . . . . . . X Z .+^+/+/+l ;+. . . . . . . = = ~ * * ! . . . . . . . . . . . . . . . . . ",
"        . . . . . . . ++< * * ) .+.+) ;+. . . . . . W ~ * ' ~ ~ , . . . . . . . . . . . . . . . . . ",
"      . . . . . . . . ++'.' ' ' ' - W . . . . . . . W # ~ < { { :                                   ",
"      . . . . . . . . & % &.&.] - < X . . . . . . . + , { , : W X %                                 ",
"f       . . . . . . . . % { - ) /+.+# ;+. . . . . . P ;+;+;+;+, # * &.                              ",
"f                       ;+X Z /+/+/+l ;+            P P P P P - * * &.. . . . . . . . . . .         ",
"                                                                    . . . . . . . . . . . . .       ",
"    . . . . . . . . . . . . . . . . . . . . . . . . . . . . . . . . . . . . . . . . . . . . . . . . "};
