/* XPM */
static char * Portal__xpm[] = {
"50 50 141 2",
"  	c #63AB3F",
". 	c #C8D45D",
"+ 	c #6BC83F",
"@ 	c #B2D942",
"# 	c #A3D541",
"$ 	c #94D141",
"% 	c #74CA3F",
"& 	c #84CD42",
"* 	c #8BCE40",
"= 	c #AAD743",
"- 	c #66C73E",
"; 	c #82CC3F",
"> 	c #BDDE45",
", 	c #C6E046",
"' 	c #9BD341",
") 	c #AED843",
"! 	c #75CA40",
"~ 	c #CEE461",
"{ 	c #F2F26F",
"] 	c #8ED045",
"^ 	c #C0DE48",
"/ 	c #CFE447",
"( 	c #D4E65F",
"_ 	c #EFF4AF",
": 	c #FFFDD3",
"< 	c #DBE848",
"[ 	c #C6E049",
"} 	c #7CCB40",
"| 	c #CBE256",
"1 	c #EEF189",
"2 	c #FEF99B",
"3 	c #FCF8A3",
"4 	c #F9F9CE",
"5 	c #F6FAE4",
"6 	c #E5EE89",
"7 	c #AAD854",
"8 	c #7CCB3F",
"9 	c #BBDD4A",
"0 	c #EEF17E",
"a 	c #FEFDEC",
"b 	c #FBFBE5",
"c 	c #E7F0B5",
"d 	c #D7E785",
"e 	c #D8E886",
"f 	c #E9EF7D",
"g 	c #B4DB49",
"h 	c #3B7D4F",
"i 	c #E2ED91",
"j 	c #FBFAC3",
"k 	c #F2F7C7",
"l 	c #ECF5C6",
"m 	c #E6F0BF",
"n 	c #BECA87",
"o 	c #99A93E",
"p 	c #9EC83D",
"q 	c #9BB33E",
"r 	c #E7EF82",
"s 	c #FCFABF",
"t 	c #F3F7DA",
"u 	c #D5E19B",
"v 	c #C3D555",
"w 	c #BCCD57",
"x 	c #838F4E",
"y 	c #343646",
"z 	c #364646",
"A 	c #4C9B43",
"B 	c #53B141",
"C 	c #3E6B45",
"D 	c #342F46",
"E 	c #F3F7CC",
"F 	c #D6E395",
"G 	c #9BA763",
"H 	c #6E7941",
"I 	c #6C7644",
"J 	c #4A5145",
"K 	c #1D0C46",
"L 	c #263246",
"M 	c #3F9742",
"N 	c #49AB41",
"O 	c #2E6345",
"P 	c #1C0146",
"Q 	c #1E1B46",
"R 	c #E8EF82",
"S 	c #98D23F",
"T 	c #D4DFA7",
"U 	c #A1AF53",
"V 	c #5E6740",
"W 	c #050046",
"X 	c #150D46",
"Y 	c #252346",
"Z 	c #387844",
"` 	c #3F8C43",
" .	c #2E5445",
"..	c #231D46",
"+.	c #1D1546",
"@.	c #130046",
"#.	c #EEF191",
"$.	c #CCE24B",
"%.	c #8ACE3E",
"&.	c #4F5548",
"*.	c #292946",
"=.	c #283746",
"-.	c #262D46",
";.	c #2C4A45",
">.	c #367244",
",.	c #449B42",
"'.	c #346B44",
").	c #409143",
"!.	c #D6E647",
"~.	c #283B46",
"{.	c #45A042",
"].	c #315E45",
"^.	c #221646",
"/.	c #E2EB60",
"(.	c #68C73F",
"_.	c #4A4D45",
":.	c #F5F6AF",
"<.	c #DCE961",
"[.	c #2B4545",
"}.	c #326445",
"|.	c #589440",
"1.	c #647A3F",
"2.	c #4D5D42",
"3.	c #99A73E",
"4.	c #3B5E45",
"5.	c #4DB540",
"6.	c #436446",
"7.	c #85A14F",
"8.	c #AACC56",
"9.	c #3E4747",
"0.	c #395246",
"a.	c #367D43",
"b.	c #3C8743",
"c.	c #859E4F",
"d.	c #C0D49C",
"e.	c #E0F0C5",
"f.	c #353846",
"g.	c #1F2446",
"h.	c #FEFEFD",
"i.	c #48A641",
"j.	c #EFF182",
"    . . . . . . . . . . . . . . . . . . + + . . . . . . + + . . . . . . . . . . . . . . . . . . . . ",
"          . . . . . . . . . . .                               . . . . . . . . . . . . . . . . . . . ",
"          . . . . . . . . . . . .                               . . . . . . . . . . . . . . . . . . ",
"  . . . . . . . . . . . . + . . . . . @ @ @             @               +                           ",
". . . . . . . . . . . . . + . . . . . @ # #             $ #                                         ",
". . . . . . . . . . . . . . . . . . . . % & # $ % + + + % * =                                       ",
". . . . . . . . . . . . . . . . . . + + - + ; $ $ % - - - % * #         @                       . . ",
". . . . . . . . . . . . . . . . . - - + $ = = > , @ = = = $ % ' =       ) @                   . . . ",
"  . . . . . . . . . @ @ @ # & + % ! ! & ~ { { { { { { { { ~ ] # # ! - & # @                   . . . ",
"    . . . . . . . . . . ' $ $ $ ' ^ / ( _ : : : : : : : : _ ( < [ } - % * '                     .   ",
"          +             + % ' @ | 1 2 3 4 5 5 5 5 5 5 5 5 4 3 2 6 7 8 + + $ @           +           ",
"                      + + + } 9 0 4 a b c d d e e e d d d c b a 4 f g ! + $ @       @ )             ",
"h                   + + - 8 g i j k l m n o o p p q o o o n m l k j i g 8 $ = *     @ @             ",
"                  + + + 8 7 r s t u v w x y z A B C D y y x w v u t s r 7 # # & -   ) @             ",
"                + + + ! g r 4 E F G H I J K L M N O P Q Q J I H G F E 4 R / = ; - 8 # @             ",
"    . . .     # $ * S g i s E T U V W X Q Y L Z `  ...Y Y +.@.W V U T E s #.$.%.- % # @         . . ",
"  . . . . . ) = = @ | 0 j t F U &.*.Y Y Y Y Y L =.-.Y Y Y =.;.=.*.&.U F t j 0 7 ! ! # @       . . . ",
". . . . . ) $ & ] [ 1 4 k u G V *.Q Y Y Y Y Y ....Y Y Y ..>.,.'.+.*.V G u k 4 6 g } ' @     . . . . ",
". . . . . ' & - ! / 2 a l v H W Y Y Y L '.'.=...Y Y ..=.'.).,.'.Y Y W H v l a 2 !.$ $ ' . . . . . . ",
"+ . . . . % + + & ( 3 b m w I X Y Y ..~.).{.].-.Y Y ^. .,.,. .-.Y Y X I w m b 3 /.g * % + . . @ $ + ",
". . . . . + (.$ ~ _ 4 c n x _.K ..Y Y L '.` ,.>.Q K ^.~.>.'.-...Y ..K _.x n c 4 :.<.' - + . . @ # . ",
". . . . . + - = { : 5 d o z O >.'.[.Y Y ..}.,.|.1.1.2.Y ..Y Y Y [.'.>.O z o d 5 : { = - + . . @ . . ",
". . . . . + + = { : 5 d 3.4.,.5.N '...Y Y =.6.7.8.8.7.9.Y Y Y ..'.N 5.,.4.3.d 5 : { = - + . . @ . . ",
". . . . . + * > { : 5 d o 0.a.).b. .Y Y ..2.c.d.e.e.d.7.2...Y Y  .b.).a.0.o d 5 : { = - + $ @ . . . ",
"  . . . . & ' , { : 5 d o f.g.-.-.Y Y Y +.1.8.e.h.h.e.8.1.+.Y Y Y -.-.g.f.o d 5 : { = + & ' @ . . . ",
"          # * @ { : 5 d o y +.Y Y Y Y Y +.1.8.e.h.h.e.8.1.+.Y Y Y Y Y +.y o d 5 : { = ; # =         ",
"        # $ 8 = { : 5 d o y Q Y Y Y ..^.^.2.7.d.e.e.d.7.2.^.^...Y Y Y Q y o d 5 : { > $ $           ",
"      @ ' % - = { : 5 d o y Q Y Y Y =. .~.Y 9.7.8.8.7.9.Y ~. .=.Y Y Y Q y o d 5 : { , $ %           ",
"      @ ' % - = { : 5 d o y Q Y Y ..'.,.>...Y 2.1.1.2.Y ..>.,.'...Y Y Q y o d 5 : { @ 8 +           ",
"        $ + - ' <.:.4 c n x J +.=.>.).,.'.Y Y ..+.+...Y Y '.,.).>.=.+.J x n c 4 _ ~ $ (.+           ",
"+         + % * g /.3 b m w I @.;.,.,. .-.Y Y Y Y Y Y Y Y -. .,.,.;.@.I w m b 3 ( & + + +         + ",
"        . . ' $ $ !.2 a l v H W =.'.'.-...Y Y ....Y Y Y Y ..-.'.'.=.W H v l a 2 / ! - +             ",
"      . . . # $ } g 6 4 k u G V *.+.Y Y Y Y -.].'.[.Y Y Y Y Y Y +.*.V G u k 4 1 ^ ! - (.            ",
"      . . ) * % + ! 7 f j t F U &.*.Y Y Y ..=.).i.].^.Y Y Y Y Y *.&.U F t j 0 | ' ! + %   @ @       ",
"        . ) ' - + - 8 g i s E T U V W X Q ..=.,.5.}.^.Y Y Q X W V U T E s i g S $ ' ' # ) @         ",
"          @     + + + ! 9 j.4 E F G H I J +.-.b.,. .K Q Q J I H G F E 4 r g ! + * ) @ @ @           ",
"          @       + + % ' | j.s t u v w x y f.0.4.z y y y x w v u t s r 7 8 + + %                   ",
"                    } $ $ ' 9 i j k l m n o o o 3.o o o o n m l k j i g 8 - + + . . . . . .         ",
"                      ) $ % ! g f 4 a b c d d d d d d d d c b a 4 0 9 } + + + . . . . . . . .       ",
"          +           @ $ + + 8 7 6 2 3 4 5 5 5 5 5 5 5 5 4 3 2 1 | @ ' % + . . . @ . . + . . .     ",
"                . . . @ ' + + - } [ < ( :.: : : : : : : : _ ( / ^ ' $ $ $ ' . . @ @ . . . . . . . . ",
"            . . . . . @ @ . + + ! # # ] ~ { { { { { { { { ~ & ! ! % + & # @ @ @ @ . . . . . . . . . ",
"            . . . . . . @ ) . . . = ' % $ = = > , @ = = = $ + - - . . . . . . . . . . . . . . . . . ",
"        . . . . . . . . . @ . . . @ # % - - + * ' * 8 - - - + + . . . . . . . . . . . . . . . . . . ",
"      . . . . . . . . . . . . . . @ @ . + + + + & # $ % % % . .                                     ",
"      . . . . . . . . . . . . . . . . @ . . . . . . # ' ' # @           +                           ",
"h       . . . . . . . . . + . . . . . @ . . . . . . . @ @ @ @           +                           ",
"h                                                                     . . . . . . . . . . .         ",
"                                                                    . . . . . . . . . . . . .       ",
"    . . . . . . . . . . . . . . . . . . + + . . . . . . + + . . . . . . . . . . . . . . . . . . . . "};
