/* XPM */
static char * Grass_xpm[] = {
"50 50 45 1",
" 	c #63AB3F",
".	c #C8D45D",
"+	c #013000",
"@	c #054800",
"#	c #085200",
"$	c #075000",
"%	c #033E00",
"&	c #044000",
"*	c #0A5A01",
"=	c #0F6B01",
"-	c #0F6C01",
";	c #0D6601",
">	c #023800",
",	c #054600",
"'	c #0A5E01",
")	c #023700",
"!	c #107601",
"~	c #117C01",
"{	c #117901",
"]	c #0F7101",
"^	c #0C6201",
"/	c #064D00",
"(	c #128701",
"_	c #138901",
":	c #118101",
"<	c #107201",
"[	c #043F00",
"}	c #012E00",
"|	c #3B7D4F",
"1	c #002900",
"2	c #085501",
"3	c #0B6001",
"4	c #0A6500",
"5	c #0B6900",
"6	c #0F7501",
"7	c #052D00",
"8	c #0B2B00",
"9	c #0F2A00",
"0	c #1E2000",
"a	c #132800",
"b	c #172600",
"c	c #043500",
"d	c #221C00",
"e	c #1B2300",
"f	c #231B00",
"  ...................+++++........................",
"     ...........     @###$%    ...................",
"     ............   &*==-;@>    ..................",
" ..................,'=---=;#)                     ",
"..................@'!~{]---^/%                    ",
".................>*!(_:<--]-;/)                   ",
".................)'{_:!]-]~~-^#)                ..",
"................[/^!:{---<~~--^/[              ...",
" ..............}/;--]-----]]---;/}             ...",
"  .............}/=-------------=/}...           . ",
"               }@^^^^=-------;^^@}....            ",
"               ..%[%,'------=$%%......            ",
"|            ....11>#;-----;#>11........          ",
"             ....%%$=------',%>+.........         ",
"             ..}@^^;-------=^^2).........         ",
"  ...        ../'----!{]!{]-]{]2&.......        ..",
" .....        %'--]]<:(!~(!-]::-#>             ...",
".......     }1%^-]~((_(!<!]--!~:]2%           ....",
"........... }}%^-]~::(~]------!:-2>.   ...........",
"............}}%^--]<]]]------=-=$)}...............",
"............}}%^--~~--------=*/@>}}...............",
"............}}>2;-~~]-------=2,,>}}...............",
".............}+>#=-----------=;;@}}...............",
"..............}}%$#$#^<~!------=/}}...............",
" ..............}}}}),'!:{-----=^@}}...............",
"           ....}}++,3=-<]-----^,)}...........     ",
"            ..}}@45=-----]{~~<')1}..........      ",
"           ..}+>4(_~]----<:_(!'&+}.........       ",
"       .....}}>26_:!------!!!]=',}}               ",
"      ......}}%^!~!-----!{{!----',)               ",
"     .......}}>'------=={__~-----'%               ",
"    ........}}+,*=---*@/;{{!-----^%               ",
"   .........}}}},'33',}}@^=---=^'2>               ",
"   ...........}}+>>>>+}}+,^---'&>)+               ",
"    ...........}}}}}}}}}})@'=*,+1} .....          ",
"               }}}}787787}}@',}}}}.......         ",
"                 }}90a90b7}c[)}}  .......         ",
"              ....}bd0ed0bbbb9}...............    ",
"             .......ffdffdddd..................   ",
"            .........fffffff....................  ",
"        .............fffffff......................",
"      ...............fffffff......................",
"      ...............fffffff......................",
"    .................fffffff......................",
"   ..................fffffff....                  ",
"   ..................ffffffff..                   ",
"|   .................ffffffff..                   ",
"|                   fffffffff      ...........    ",
"                   fffffffffff    .............   ",
"  ................fffffffffffff..................."};
